<svg width="41" height="41" viewBox="0 0 41 41" fill="none" xmlns="http://www.w3.org/2000/svg">
<circle cx="20.0793" cy="20.2617" r="20" fill="#33658A"/>
<path d="M15.7821 30.7794C16.9391 31.2521 18.2724 30.6922 18.7451 29.5353L14.5381 27.8164C14.0654 28.9733 14.6147 30.3024 15.7821 30.7794ZM24.671 27.0472L26.8196 21.7884C28.1389 18.5595 27.5184 15.1517 24.8026 13.2075L25.0948 12.4923C25.4515 11.6194 25.0347 10.6268 24.1617 10.2701C23.2888 9.91343 22.2962 10.3302 21.9395 11.2032L21.6473 11.9183C18.3366 11.4002 15.5221 13.3923 14.1985 16.6317L12.0499 21.8905L10.1388 22.6929C9.20548 23.0848 9.20415 24.4098 10.1402 24.7922L23.9919 30.4517C24.9279 30.8341 25.8653 29.8916 25.4734 28.9583L24.671 27.0472Z" fill="white"/>
</svg>
